<svg width="155" height="23" viewBox="0 0 155 23" fill="none" xmlns="http://www.w3.org/2000/svg">
<path d="M0.772461 22H6.30957V14.9688L18.4238 0.671875H12.6523L6.30957 8.49414V0.671875H0.772461V22ZM12.96 22H19.4492L9.83984 7.95215L6.41211 12.0098L12.96 22ZM20.46 22H26.041V0.671875H20.46V22ZM29.5713 22H34.2441V10.5449C34.2441 10.2031 34.2393 9.88086 34.2295 9.57812C34.2295 9.26562 34.2197 8.93848 34.2002 8.59668H34.3027C34.3906 8.91895 34.4883 9.23145 34.5957 9.53418C34.7031 9.82715 34.8301 10.125 34.9766 10.4277L40.9531 22H46.71V0.671875H42.0518V12.2148C42.0518 12.5469 42.0518 12.8643 42.0518 13.167C42.0518 13.4697 42.0615 13.792 42.0811 14.1338H41.9639C41.876 13.8115 41.7734 13.5039 41.6562 13.2109C41.5488 12.9082 41.4219 12.6055 41.2754 12.3027L35.3135 0.671875H29.5713V22ZM49.6396 11.9658C49.6396 15.4717 50.5283 18.084 52.3057 19.8027C54.083 21.5215 56.373 22.3809 59.1758 22.3809C61.9688 22.3809 64.2637 21.5215 66.0605 19.8027C67.8574 18.084 68.7559 15.4717 68.7559 11.9658V10.7061C68.7559 7.2002 67.8574 4.58789 66.0605 2.86914C64.2637 1.15039 61.9688 0.291016 59.1758 0.291016C56.373 0.291016 54.083 1.15039 52.3057 2.86914C50.5283 4.58789 49.6396 7.2002 49.6396 10.7061V11.9658ZM55.3525 13.0498V9.63672C55.3525 7.75195 55.6943 6.38965 56.3779 5.5498C57.0615 4.70996 57.9941 4.29004 59.1758 4.29004C60.3574 4.29004 61.2949 4.70996 61.9883 5.5498C62.6816 6.38965 63.0283 7.75195 63.0283 9.63672V13.0498C63.0283 14.9443 62.6816 16.3164 61.9883 17.166C61.2949 18.0059 60.3574 18.4258 59.1758 18.4258C57.9941 18.4258 57.0615 18.0059 56.3779 17.166C55.6943 16.3164 55.3525 14.9443 55.3525 13.0498ZM135.274 0.657227H129.635V2.94238C129.635 3.89941 129.518 4.73437 129.283 5.44727C129.049 6.15039 128.707 6.79492 128.258 7.38086L131.422 9.54883C132.74 8.65039 133.712 7.6543 134.337 6.56055C134.962 5.45703 135.274 4.24609 135.274 2.92773V0.657227Z" fill="white"/>
<path d="M70.1182 4.90527H76.0215V22H81.5879V4.90527H87.4766V0.671875H70.1182V4.90527ZM88.5459 11.9658C88.5459 15.4717 89.4346 18.084 91.2119 19.8027C92.9893 21.5215 95.2793 22.3809 98.082 22.3809C100.875 22.3809 103.17 21.5215 104.967 19.8027C106.764 18.084 107.662 15.4717 107.662 11.9658V10.7061C107.662 7.2002 106.764 4.58789 104.967 2.86914C103.17 1.15039 100.875 0.291016 98.082 0.291016C95.2793 0.291016 92.9893 1.15039 91.2119 2.86914C89.4346 4.58789 88.5459 7.2002 88.5459 10.7061V11.9658ZM94.2588 13.0498V9.63672C94.2588 7.75195 94.6006 6.38965 95.2842 5.5498C95.9678 4.70996 96.9004 4.29004 98.082 4.29004C99.2637 4.29004 100.201 4.70996 100.895 5.5498C101.588 6.38965 101.935 7.75195 101.935 9.63672V13.0498C101.935 14.9443 101.588 16.3164 100.895 17.166C100.201 18.0059 99.2637 18.4258 98.082 18.4258C96.9004 18.4258 95.9678 18.0059 95.2842 17.166C94.6006 16.3164 94.2588 14.9443 94.2588 13.0498ZM110.548 22H116.085V15.1738H119.557C122.037 15.1738 123.917 14.5342 125.196 13.2549C126.485 11.9756 127.13 10.1982 127.13 7.92285C127.13 5.62793 126.48 3.8457 125.182 2.57617C123.883 1.30664 122.027 0.671875 119.615 0.671875H110.548V22ZM116.085 11.3066V4.68555H118.648C119.762 4.68555 120.533 4.97852 120.963 5.56445C121.393 6.14062 121.607 6.94141 121.607 7.9668C121.607 9.00195 121.393 9.81738 120.963 10.4131C120.533 11.0088 119.762 11.3066 118.648 11.3066H116.085ZM137.691 16.0381C137.691 18.1279 138.487 19.71 140.079 20.7842C141.681 21.8486 143.722 22.3809 146.202 22.3809C148.692 22.3809 150.704 21.8096 152.237 20.667C153.78 19.5244 154.552 17.8984 154.552 15.7891C154.542 13.8359 153.946 12.332 152.765 11.2773C151.593 10.2227 149.938 9.40234 147.799 8.81641C145.904 8.29883 144.698 7.88379 144.181 7.57129C143.663 7.24902 143.404 6.79004 143.404 6.19434C143.404 5.58887 143.614 5.11035 144.034 4.75879C144.464 4.40723 145.143 4.23145 146.07 4.23145C146.979 4.23145 147.667 4.45605 148.136 4.90527C148.604 5.35449 148.839 5.96484 148.839 6.73633V7.13184H154.098V6.4873C154.098 4.56348 153.355 3.0498 151.871 1.94629C150.387 0.842773 148.434 0.291016 146.012 0.291016C143.58 0.291016 141.627 0.857422 140.152 1.99023C138.688 3.11328 137.955 4.66602 137.955 6.64844C137.955 8.41602 138.541 9.82227 139.713 10.8672C140.885 11.9023 142.579 12.7227 144.796 13.3281C146.651 13.8359 147.833 14.2852 148.341 14.6758C148.858 15.0566 149.117 15.5986 149.117 16.3018C149.117 16.9756 148.858 17.5127 148.341 17.9131C147.833 18.3135 147.105 18.5137 146.158 18.5137C145.182 18.5137 144.42 18.2891 143.873 17.8398C143.326 17.3809 143.058 16.6924 143.067 15.7744V15.2764H137.691V16.0381Z" fill="#3385E2"/>
</svg>
